<svg xmlns="http://www.w3.org/2000/svg" width="40" height="40"><path fill="#0085ff" d="M20 40.002c11.047 0 20.002-8.955 20.002-20.001C40.002 8.955 31.047 0 20 0 8.955 0 0 8.955 0 20c0 11.047 8.955 20.002 20 20.002z"/><path fill="#fff" d="M20.027 6.65c1.79.032 3.582.05 5.373.1 1.553.043 3.06.32 4.41 1.144 1.77 1.08 2.854 2.674 3.204 4.698.209 1.211.28 2.456.3 3.687.04 2.647.024 5.297-.005 7.944-.015 1.39-.061 2.786-.523 4.122-.893 2.593-2.712 4.167-5.38 4.674-1.204.229-2.455.282-3.685.3-2.639.04-5.278.024-7.916-.004-1.39-.015-2.786-.06-4.123-.518-2.596-.888-4.171-2.707-4.686-5.37-.232-1.205-.283-2.455-.301-3.687-.041-2.647-.025-5.297.004-7.944.015-1.39.061-2.785.523-4.122.893-2.592 2.712-4.166 5.38-4.673 1.204-.229 2.454-.255 3.686-.303 1.244-.048 2.492-.01 3.738-.01V6.65zm10.95 13.146h-.054c0-1.053.022-2.105-.006-3.156a40.42 40.42 0 00-.168-3.03c-.228-2.254-1.57-3.807-3.789-4.23-1.167-.221-2.378-.255-3.57-.277a204.71 204.71 0 00-6.778-.002c-1.126.018-2.263.06-3.374.233-1.927.3-3.245 1.404-3.778 3.315a7.82 7.82 0 00-.286 1.898 267.505 267.505 0 00-.085 7.242c.007 1.536.041 3.077.175 4.607.2 2.292 1.596 3.855 3.853 4.265 1.16.21 2.362.236 3.545.257 2.23.038 4.46.027 6.69.003a34.779 34.779 0 003.059-.169c.95-.093 1.839-.403 2.603-1.01 1.238-.984 1.717-2.34 1.79-3.846.099-2.031.12-4.066.173-6.1z"/><path fill="#fff" d="M26.842 20.022a6.82 6.82 0 01-6.853 6.84c-3.82 0-6.84-3.052-6.839-6.912.002-3.762 3.08-6.782 6.911-6.78 3.742.002 6.78 3.073 6.78 6.852zm-6.85 4.436c2.436.002 4.443-2.003 4.446-4.44.001-2.435-2.006-4.445-4.439-4.444-2.44 0-4.443 2-4.445 4.439-.002 2.435 2.002 4.442 4.439 4.445zm8.729-11.566c.002.896-.718 1.625-1.6 1.62-.887-.006-1.619-.743-1.61-1.621a1.602 1.602 0 011.598-1.591c.911-.005 1.61.687 1.612 1.592z"/></svg>