<svg xmlns="http://www.w3.org/2000/svg" width="40" height="40"><path fill="#0085ff" d="M20 40.002c11.047 0 20.002-8.955 20.002-20.001C40.002 8.955 31.047 0 20 0 8.955 0 0 8.955 0 20c0 11.047 8.955 20.002 20 20.002z"/><path fill="#fff" d="M30.968 11.028c-.052.653-.245 1.345-.392 2.043a16170.15 16170.15 0 01-3.681 17.36c-.07.334-.147.667-.325.964-.294.49-.718.67-1.274.543a2.51 2.51 0 01-.942-.458c-1.852-1.374-3.712-2.739-5.56-4.121-.235-.176-.37-.157-.567.041-.911.905-1.84 1.791-2.754 2.694-.348.344-.734.55-1.24.532-.359-.013-.565-.159-.674-.5-.57-1.785-1.152-3.566-1.73-5.348-.196-.605-.403-1.206-.587-1.815-.066-.22-.18-.33-.401-.4-1.812-.556-3.62-1.126-5.431-1.69-.239-.076-.478-.15-.691-.285-.517-.325-.558-.76-.11-1.17.309-.281.682-.45 1.065-.596 2.468-.954 4.937-1.907 7.405-2.859L29.07 9.8c.043-.016.084-.035.127-.05 1.002-.374 1.765.15 1.772 1.278zM14.245 28.925c.097-.046.088-.11.093-.163.121-1.3.248-2.6.354-3.901.027-.324.127-.565.378-.79 3.474-3.12 6.939-6.25 10.405-9.378.22-.198.44-.394.655-.597.089-.084.204-.18.136-.32-.071-.144-.225-.139-.362-.123-.266.03-.492.161-.715.302-4.275 2.697-8.55 5.396-12.83 8.086-.243.153-.276.292-.19.553.53 1.581 1.044 3.17 1.562 4.756l.514 1.575z"/></svg>