<svg xmlns="http://www.w3.org/2000/svg" width="40" height="40"><path fill="#0085ff" d="M20 40.002c11.047 0 20.002-8.955 20.002-20.001C40.002 8.955 31.047 0 20 0 8.955 0 0 8.955 0 20c0 11.047 8.955 20.002 20 20.002z"/><path fill="#fff" d="M32.71 13.162c.197-.62 0-1.074-.875-1.074h-2.91c-.734 0-1.073.396-1.27.82 0 0-1.498 3.616-3.588 5.96-.677.677-.988.903-1.355.903-.196 0-.452-.226-.452-.849v-5.789c0-.734-.226-1.073-.848-1.073h-4.574c-.453 0-.735.339-.735.678 0 .706 1.045.875 1.159 2.853v4.293c0 .931-.17 1.102-.536 1.102-.988 0-3.389-3.645-4.829-7.796-.283-.82-.565-1.13-1.3-1.13H7.659c-.848 0-.988.395-.988.82 0 .763.988 4.604 4.604 9.687 2.401 3.473 5.818 5.338 8.896 5.338 1.864 0 2.09-.424 2.09-1.13v-2.626c0-.848.17-.989.763-.989.424 0 1.186.226 2.91 1.893 1.976 1.977 2.315 2.882 3.417 2.882l2.91-.003c.847 0 1.241-.424 1.016-1.242-.254-.82-1.215-2.005-2.458-3.418-.677-.79-1.694-1.665-2.005-2.09-.423-.563-.31-.791 0-1.298-.028 0 3.53-5.028 3.897-6.722z"/></svg>